<svg xmlns="http://www.w3.org/2000/svg" width="150" height="150" fill="none" viewBox="0 0 150 150">
  <path fill="#EFEFEF" d="M114.238 16.654c-28.813.538-48.884-14.02-62.767-13.758-13.883.262-42.9 8.791-41.704 72.667 1.196 63.874 40.6 72.516 55.875 72.233 71.512-1.338 99.629-132.096 48.596-131.142Z"/>
  <path fill="#9FA8F9" d="M70.833 121.875c23.588 0 42.709-19.121 42.709-42.708S94.421 36.458 70.833 36.458c-23.587 0-42.708 19.122-42.708 42.709 0 23.587 19.121 42.708 42.708 42.708Z"/>
  <path fill="#6F7DF6" d="M36.667 79.167c0-22.146 16.858-40.35 38.437-42.492a42.53 42.53 0 0 0-4.27-.217c-23.588 0-42.709 19.121-42.709 42.709 0 23.587 19.12 42.708 42.708 42.708a42.44 42.44 0 0 0 4.271-.217c-21.579-2.141-38.437-20.346-38.437-42.491Z"/>
  <path fill="#A4AFC1" d="m119.954 125.207 2.946-2.947 5.893 5.893-2.946 2.946-5.893-5.892Zm.739-14.029 5.893-5.892 2.946 2.946-5.892 5.892-2.947-2.946Zm-16.938 16.942 5.892-5.893 2.947 2.947-5.893 5.892-2.946-2.946Zm8.745-98.882a6.258 6.258 0 0 1-6.25-6.25 6.258 6.258 0 0 1 6.25-6.25 6.258 6.258 0 0 1 6.25 6.25 6.258 6.258 0 0 1-6.25 6.25Zm0-8.334c-1.15 0-2.083.938-2.083 2.084 0 1.145.933 2.083 2.083 2.083 1.15 0 2.083-.938 2.083-2.084a2.086 2.086 0 0 0-2.083-2.083Z"/>
  <path fill="#242424" d="M70.833 125C45.563 125 25 104.438 25 79.167c0-25.271 20.562-45.834 45.833-45.834a45.698 45.698 0 0 1 24.725 7.246l-3.379 5.258a39.46 39.46 0 0 0-21.346-6.254c-21.825 0-39.583 17.759-39.583 39.584 0 21.825 17.758 39.583 39.583 39.583s39.584-17.758 39.584-39.583c0-1.305-.063-2.596-.184-3.867l6.221-.604c.142 1.475.213 2.962.213 4.47 0 25.272-20.563 45.834-45.834 45.834Z"/>
  <path fill="#242424" d="M76.042 89.583a3.1 3.1 0 0 1-2.209-.916l-18.75-18.75 4.421-4.421 16.542 16.541 43.621-43.62 4.42 4.42-45.833 45.834a3.13 3.13 0 0 1-2.212.912Z"/>
</svg>
